<svg xmlns="http://www.w3.org/2000/svg" fill="none" viewBox="0 0 24 24" id="FileUpload">
  <path fill="#ffffff" fill-rule="evenodd" d="M12.5 1C12.7761 1 13 1.22386 13 1.5V6C13 7.65685 14.3431 9 16 9H20.5C20.7761 9 21 9.22386 21 9.5V20C21 21.6569 19.6569 23 18 23H6C4.34315 23 3 21.6569 3 20V4C3 2.34315 4.34315 1 6 1H12.5ZM12.7071 11.2929C12.3166 10.9024 11.6834 10.9024 11.2929 11.2929L8.29289 14.2929C7.90237 14.6834 7.90237 15.3166 8.29289 15.7071C8.68342 16.0976 9.31658 16.0976 9.70711 15.7071L11 14.4142V18C11 18.5523 11.4477 19 12 19C12.5523 19 13 18.5523 13 18V14.4142L14.2929 15.7071C14.6834 16.0976 15.3166 16.0976 15.7071 15.7071C16.0976 15.3166 16.0976 14.6834 15.7071 14.2929L12.7071 11.2929ZM15 1.17157C15 1.07682 15.0768 1 15.1716 1C15.702 1 16.2107 1.21071 16.5858 1.58579L20.4142 5.41421C20.7893 5.78929 21 6.29799 21 6.82843C21 6.92318 20.9232 7 20.8284 7H16C15.4477 7 15 6.55228 15 6V1.17157Z" clip-rule="evenodd" class="color000000 svgShape"></path>
</svg>
