<svg xmlns="http://www.w3.org/2000/svg" enable-background="new 0 0 24 24" viewBox="0 0 24 24" id="textbox">
  <g id="_icons" fill="#ffffff" class="color000000 svgShape">
    <path d="M21.65,7.99C20.94,8.62,20.01,9,19,9c-2.21,0-4-1.79-4-4c0-1.01,0.38-1.94,1.01-2.65c-3.23-0.56-6.57-0.44-9.75,0.36
			C4.5,3.14,3.14,4.5,2.71,6.26c-0.95,3.75-0.95,7.73,0,11.48c0.43,1.76,1.79,3.12,3.55,3.55C8.14,21.76,10.07,22,12,22
			s3.86-0.24,5.74-0.71c1.76-0.43,3.12-1.79,3.55-3.55C22.1,14.56,22.22,11.22,21.65,7.99z M8,8h5c0.55,0,1,0.45,1,1s-0.45,1-1,1H8
			c-0.55,0-1-0.45-1-1S7.45,8,8,8z M10,16H8c-0.55,0-1-0.45-1-1s0.45-1,1-1h2c0.55,0,1,0.45,1,1S10.55,16,10,16z M16,13H8
			c-0.55,0-1-0.45-1-1s0.45-1,1-1h8c0.55,0,1,0.45,1,1S16.55,13,16,13z" fill="#ffffff" class="color000000 svgShape"></path>
    <circle cx="19" cy="5" r="3" fill="#ffffff" class="color000000 svgShape"></circle>
  </g>
</svg>
