<svg xmlns="http://www.w3.org/2000/svg" width="48" height="48" fill="none" viewBox="0 0 48 48" id="volume-x">
  <path fill="#000" d="M12.4966 32.9133C9.37042 32.9133 6.77641 30.4035 6.73044 27.2776V20.8905C6.68351 17.699 9.2108 15.0867 12.4026 15.0867H14.6265C14.7743 15.0867 14.9169 15.0321 15.027 14.9334L20.838 9.7235C21.8815 8.78796 23.2337 8.27057 24.6352 8.27057C27.7767 8.27057 29.2738 10.8173 29.2738 13.9587L29.2738 34.0412C29.2738 37.1827 27.7767 39.7294 24.6352 39.7294C23.2337 39.7294 21.8815 39.212 20.838 38.2765L15.027 33.0666C14.9169 32.9679 14.7743 32.9133 14.6265 32.9133H12.4966Z"></path>
  <path fill="#000" fill-rule="evenodd" d="M40.6551 19.6858C41.4752 20.5059 41.4752 21.8355 40.6551 22.6556L39.3108 24L40.6551 25.3443C41.4752 26.1644 41.4752 27.494 40.6551 28.3141C39.835 29.1342 38.5054 29.1342 37.6853 28.3141L36.3409 26.9698L34.9966 28.3141C34.1765 29.1342 32.8468 29.1342 32.0267 28.3141C31.2066 27.494 31.2066 26.1644 32.0267 25.3443L33.3711 24L32.0267 22.6556C31.2066 21.8355 31.2066 20.5059 32.0267 19.6858C32.8468 18.8657 34.1765 18.8657 34.9966 19.6858L36.3409 21.0301L37.6853 19.6858C38.5054 18.8657 39.835 18.8657 40.6551 19.6858Z" clip-rule="evenodd"></path>
</svg>
